<?xml version="1.0" encoding="utf-8"?>
<!-- Generator: Adobe Illustrator 24.3.0, SVG Export Plug-In . SVG Version: 6.00 Build 0)  -->
<svg version="1.1" id="Layer_1" xmlns="http://www.w3.org/2000/svg" xmlns:xlink="http://www.w3.org/1999/xlink" x="0px" y="0px"
	 viewBox="0 0 864 864" style="enable-background:new 0 0 864 864;" xml:space="preserve">
<path d="M851.5,684c-17.2,1.1-40.9-2.8-40.9-3.3c0-2.3,17.6-9.8,33.5-35.3c2.2-3.7,4.6-9.8,0.3-9.8c-8.8,0-45.1,37.1-126.2,23.2
	c10.9-11.3,21.1-23.3,30.5-36c20.8-1.6,41.6-2.6,62.5-3c75.3-1,46.5-157.7,1.8-139.1c-1.6,0.6,7-27.8,7-73.9
	c0-316.4-376.3-478-606.7-268.6c-3.6-2-40.1-21.8-44.3-22.5C149.6,119.7,35.8,201,19.2,215c-15.1,13.9-24.8,6.9,20,29.7
	c-24.5,18-33,25.7-33,78.4c0,53.6,4,55.7,1.2,66.2c-4.2,15.6,7.1,20.7,16,16c6.6-3.4,9.7-18.2,1-21.5c-14.2-7.3-10.4-101,2.2-115.6
	c3.8-4.4,18.4-18.2,24-18.2c2.2,0,4.2,1.1,6.2,3.2c-0.3,2.3-0.7,6.7-1,13c-2.8,114.1-8,76.3,44.9,72.6
	C49.2,610.2,308.1,838.1,570.6,751.7c13.1,55.6,58,85,47.2,58.1c-11-22.4-9.5-39.7-7.7-39.7c1.3,0,3.3,5.4,4.2,6.2
	c8.7,13.5,23.7,23.4,30,23.4c13.1,0-14.5-26.5-18-71.6c20.4-10.8,39.7-23.5,57.6-37.8c20.2,12.2,56.4,23.1,94.7,23.1
	c32.3,0,49.9-1.2,73.2-20.2C857.7,687.7,860.2,684,851.5,684z M18.2,388.3c5.3,0,4.3,8,1.5,10.5C12.7,404.6,9.3,388.3,18.2,388.3z
	 M701.7,653.6c-13.5-6.9-24.6-20.2-24.6-22.1c0-1.9,50.3-6.8,50.6-6.8C719.6,634.8,710.9,644.4,701.7,653.6z M636.3,561.4
	c-4.4-21.5-23.1-42.4-23.1-44.9c0-0.4,46-4.7,49.5-1.2c0.9,0.9,23.1,30.7,23.1,63.2c0,15-4.8,29.3-14.5,42.7
	c-40,5.7-36.4,5.7-35.3,1.2C640,614.9,641.3,586.4,636.3,561.4z M488.3,551.7c-13.9-38.6-60.7,0.3-71.5,40
	c-5.6,16.8-5.9,16.9-9.5,16.9c-21.3,0,6.5-107.9,68.2-107.9c48.2,2.6,41.7,65.6,27.6,104.1c-2.3,6.6-27,4.6-27-0.6
	C476.1,602.1,497.4,580.4,488.3,551.7z M421.5,603.9c12.5-48,60.2-83.9,60.2-36.8c0,14.4-8.6,31-14.5,37.4
	c-13.7,14.8,16.9,4.3,30,12.8C464.1,683.4,402.6,675.4,421.5,603.9z M484.4,652c23.8-25.7,39.1-64.9,39.1-96.7
	c0-71-55.8-39.7,77.7-39.7c40.1,47.9,30.7,105.8,20.6,112.1c-10.5,6.5-14.2-2.2-109.3,21.1C484.1,655.1,479.5,656.9,484.4,652z
	 M822.2,488c11.8,0,39.7,64,13.3,106.8c-16.4,24.1-30.8,9.3-142.6,23.4c-1.5,0-7.8,2.5-5.3-2.4c11.3-21.8,8.4-41.1,5.9-59.3
	c-3.2-23.5-20.5-39.3-20.5-42.1c0-4,41.8,2.6,119.8-17.9C800.7,494.4,822.1,488,822.2,488z M804.5,409.5c-0.4-0.2-0.9-0.2-1.4,0
	c-6.1,7.1-20.5,17.1-27.8,18c7.4-9.8-9.2-32-2.8-36.8c1.6-1.2,3.6,0.1,6.3-0.8c4-1.3,2.3-9.4-8.9-3.2c-8.8,5-0.4,11.6-20.8,31.3
	c-0.2,0-14,14-20.6,10.6c-8.3-4.2,5.4-25.2,12.2-36.8c0.6-3.3-3.9-5.6-7-4.4c-6,4.2-19.8,18.3-29.2,30.4c4.5-10,10.9-21.4,14.7-26.1
	c0.6-3.3-3.9-5.6-7-4.4c-4.6,6.9-9,17.4-12.2,27.1c-6.7,6.7-14.3,7.7-19.2,3.9c6.1-7.5,17.1-33.4-1.6-33.9
	c-13.9,0.3-29.6,19.8-30.4,33.2c-7.1,7-16.6,13.4-21.1,11.1c-8.3-4.2,5.4-25.2,12.2-36.8c0.6-3.3-3.9-5.6-7-4.4
	c-4.3,7.9-10.6,19.6-12.9,29.1c-10.9,10.7-30.8,20.3-25.5,0.3c2.9-11.7,11-29.8,15.9-38.5c9.2,0.7,18.2,0.6,26.5-1.2
	c-0.7,0.9-1.2,2.1-1.2,3.4c0,6.7,10.7,6.6,10.7,0c0-2.3-1.5-4.3-3.4-5c56.3-18.2,37-77.6-11.8-63.2c-27.1,8.3-44.8,38.4-51,53.9
	l2.7,0.2c6.2-13.6,21.6-43.5,49.3-50.1c59.4-14,58.4,60.2-19.4,57.4c2-4.1,4.4-8.1,7.5-13.2c-0.4-2.6-4.7-4.7-7.2-3
	c-3.3,5.1-6,11.8-8.3,15.8c-27.6-2.1-56.3-9.8-78.3,1.5l1.1,2c18.7-9.2,44.8-3,74.9,1.1c-5,10.9-12.4,26.8-15,38.4
	c-0.3,1.2-16,15.7-22.3,12.4c-8.3-4.2,5.4-25.2,12.2-36.8c0.6-3.3-3.9-5.6-7-4.4c-3.4,6.2-7.9,14.6-10.8,22.5
	c-40.3,52.1-23.9-23.1,1.6-13.7c3.3,0,4.6-5,2.8-7.8c-10.8-5.9-30.9,14.1-34.7,29.4c-11.3,10.8-27.5,17.8-22.7,0
	c16.9-62.4,66.1-123.4,82.3-81.1l5-2.8c-18.8-43.5-77.9,8.5-94.6,83.5c-0.5,2.4-14.7,14.1-20.4,11.1c-8.3-4.2,5.4-25.2,12.2-36.8
	c0.6-3.3-3.9-5.6-7-4.4c-5.1,9.5-26.2,45.8-36,41.2c-8.3-4.2,5.4-25.2,12.2-36.8c0.6-3.3-3.9-5.6-7-4.4
	c-4.5,8.2-11.6,20.5-13.8,30.2c-10.7,9.9-29.6,18.8-24.4-0.8c2.9-11.4,10.7-28.8,15.4-37.7c56.6,2.9,60.8-58,10.9-63.2
	c-28.1-2.7-55.9,18.3-67.7,30.6l2.4,1c82.4-77.2,139,28.9,57.2,26.3c2.3-4.7,4.8-8.8,7.7-13.4c-0.4-2.6-4.7-4.7-7.2-3
	c-3.3,5.2-6.1,11.9-8.3,15.9c-37.1-5-65.9-37.3-92.5-40.6c-45.7-5.5-31.9,48.7,22.2,29.6l-0.9-1.9c-49.8,17.9-56.6-28.6-21.7-24.2
	c23.2,2.8,54.8,36.6,90.4,42.1c-5.1,11.3-12.3,26.4-14.8,38.1c-7.2,7.4-17.5,14.7-22.3,12.2c-8.3-4.2,5.4-25.2,12.2-36.8
	c0.6-3.3-3.9-5.6-7-4.4c-3.4,6.2-7.9,14.6-10.8,22.5c-40.3,52.1-23.9-23.1,1.6-13.7c3.3,0,4.6-5,2.8-7.8
	c-10.8-5.9-31,14.3-34.8,29.6c-7.1,6.8-16.3,12.9-20.6,10.6c-8.3-4.2,6.5-27.5,13.3-39.1c1.6-2.4-3.8-8.1-6.4-5.1
	c-5.2,1.8-13.1,3.6-19.2,2.7c6.1-39-34-27.3-18.2-7c-1.8,0.7-12.7,21.1-13.6,22.9c-44.9,64-29.9-17.7-2.8-7.8c3.3,0,4.6-5,2.8-7.8
	c-10.8-5.8-30.8,14-34.7,29.3c-7.1,6.9-16.5,13.2-20.9,10.9c-8.3-4.2,5.4-25.2,12.2-36.8c0.6-3.3-3.9-5.6-7-4.4
	c-6,4.2-19.8,18.3-29.2,30.4c4.5-10,10.9-21.4,14.7-26.1c0.6-3.3-3.9-5.6-7-4.4c-4.6,6.9-9,17.4-12.2,27.1
	c-6.7,6.7-14.3,7.7-19.2,3.9c6.1-7.5,17.1-33.4-1.6-33.9c-13.9,0.3-29.2,19.5-30.4,32.7c-9.2,7.9-23.2,14-30.1,10.3
	c-9.9-6.2,8.4-41.6,23.5-36.9c1.1,0.3,1.5,0.9,1.9,1.7c6.9,0.9,7.5-7.5-3.7-7.1c-13,0.4-28.3,18-31.5,31.4
	c-0.6-26.6,1.7-52.2,6.6-76.6c45.8,3.9,51.3,36.6,60.7,36.6c6.6,0,7.8-10.4,16.5-21.7c7.7-10,26.3-16,38.7-16
	c33.5,0,52.9,18.6,52.9-10.7c1.4-70.4,1.4-57.6,0.7-70.4c0-8.4,2.1-12.3,13-17.5c23.8-11.1,34.9-15.5,34.9-22.2
	c0-11.4-96.4-65.1-106.3-70.7C451-50.5,806.6,109.4,804.5,409.5z M751.2,418.9c6.4-6.4,7.3-9.1,13.9-18.5
	C780.9,436,746.6,436.5,751.2,418.9z M683,388.4c8.1,5,1.5,19.6-3.7,28C675.1,411.7,673.5,400.6,683,388.4z M676.9,419.1
	c-16.9,17.6-26,6.1-17.8-12.2c3.8-8.2,12.2-18,19.9-18.9C669.7,399.5,670.4,412.6,676.9,419.1z M314.4,386.7
	c-12.4-1.3-21-15.3-14-21.2C306.2,360.6,316.8,367.1,314.4,386.7z M184,387.4c8.1,5,1.5,19.6-3.7,28
	C176.1,410.7,174.5,399.7,184,387.4z M177.9,418.2c-16.9,17.6-26,6.1-17.8-12.2c3.8-8.2,12.2-18,19.9-18.9
	C170.7,398.6,171.3,411.6,177.9,418.2z M59.1,242.2c10.5-9.9,23.1-20.7,14.7-20.7c-3.4,0.4-6.8,4.7-24.7,16.5
	c-30-12.6-30.5-8.8-21-17c6-5,132.4-97.9,140.8-97.9c1.6,0,158.3,85.7,150,93.9c-31.4,15.2-87.3,36.6-119.8,48.6
	c-36.9,13.5-30.6,13.7-61.7,5.5C112.7,264.5,82.9,252.4,59.1,242.2z M65.9,261.2c0-9.1,2.5-0.9,60.2,19.5
	c44.5,15.7,53.4,9.2,153.5-32.5c-3.4,19.9-3,82.9-11.5,82.9c-26-5.4-40.6-7.1-60.7-0.2c-28.4,11.6-27.3,27.2-31.7,27.2
	c-5.1,0-18.5-32.8-72.7-30.3C49.6,330.1,70.5,362,65.9,261.2z M110.3,425.2c4.2,9.7,22.2,8.9,39.4-6.1c0.8,14.1,17.8,18.3,30.2,0.7
	c6.3,4,13.7,2.4,19.7-2.2c-1.6,5-2.8,9.5-3.6,13c4.5,0,4.1,0.1,4.1-0.1c0.4,0.4,10.2-18.8,29.6-34.9c-20,39.4-2,45.2,20,24.8
	c-1,11.8,10.4,18.7,30.2-6.8c-3.8,8.4-7.7,17.6-10.6,25.4c-66.6-1-90.5,57.8-49,56.3c31.5-1.1,48.3-34.4,54.9-51.7
	c8.8,1.8,20,9.1,31,17c-35.7,32.4,18.2,58.8,51.7,32.9c61.2,33.5,102.4-52.7,15.1-54.3c-22.5-0.4-48.1,6.8-63.4,18.6
	c-11.3-8.2-23.1-15.6-33.1-17.6c4.8-16.5,21.2-52.5,25-56.3c0.8-1.3,4.7,5,15.8,5.4c5.6,0.2,11.3,0.5,16.7-1.9
	c1.7-0.8-22,36.1-9.6,44.1c6,4.1,16.7-2.4,24.9-10c-0.8,11.3,10.2,18.1,28.9-5.3c-4.2,17,7.4,25.1,29.3,3.8
	c-1.8,18.3,16.9,13.8,31.4,1.4c-1,12.3,12.7,21.1,34.5-11.8c-9.4,24.6,4.5,31.2,25.3,12.2c-0.8,16.2,16.4,11.7,30-0.2
	c-0.8,11.3,10.2,18.1,28.9-5.3c-4.2,17,7.4,25.1,29.3,3.8c-1.9,18.8,17.8,13.5,32.4,0.5c-1.5,12.7,8.9,19.8,29.6,0
	c1.2,13.7,17.9,17.6,30.2,0.2c6.3,4,13.7,2.4,19.7-2.2c-1.6,5-2.8,9.5-3.6,13c4.5,0,4.1,0.1,4.1-0.1c0.4,0.4,10.2-18.8,29.6-34.9
	c-19.9,39.1-2.3,45,19.3,25.4c-0.5,11.1,9.8,14.1,20.2,10c10.1,3.2,28.8-11.9,36.1-20.4c-0.3,25.6-3.4,50.5-9,74.5
	c-24,6.4-46.5,12.2-107.9,17.1c-173.2,14.6-186.3-12.5-213.8-12.5c-30.9,0-58.1,31.2-71.5,59.3c-13.3,28.1-13.5,57.6-4.7,62.1
	c11.9,6.2,12.4-0.7,11.3,7.6c-1.1,9.9-0.6,15.6,0.6,21.9c12.6,51.1,39.9,23,190.4,0.3c3.7,0,9.8-3,2.4,4.4
	c-22.2,25.8-37,55.9-34,89.8C350.5,809.5,122.2,654.4,110.3,425.2z M268,442.4c-28.4,68.4-80,56-53.9,21.2
	C223.9,450.5,249.4,443.5,268,442.4z M359.2,488.3c-16.9-6.2-32-18.1-46.5-28.7c19.6-13.3,53.1-20.2,76-14.5
	c60.8,15.1,17.4,69.2-25.1,45.6c6.6-4.2,13.2-9.9,18-15.1C375.1,473.1,383,475.7,359.2,488.3z M353.1,491.4
	c-26.5,19.4-75.1,0.1-44.1-28.6C322.8,472.9,337.6,484.3,353.1,491.4z M633.6,781.3c6,12.7-0.1,8.4-9.2-2.1
	c-7.8-8.9-11.9-16.6-15.7-16.6c-9.6,0-1.2,35.6-3.3,35.6c-2.2,0-18.9-22.3-24.8-49.9c-8.2-37.8,4.9-67.3,32.8-105.8
	c3.9-4.9,20.6-6,27-6.8c4.2,0,8.3,9,8.3,13.6C648.7,656.2,590.8,688.4,633.6,781.3z M626,710.5c0.2-9.4-0.9-18.2,17-42.6
	c12.6-16.4,7.7-4.4,27.7,12.8C656.7,691.8,641.7,701.8,626,710.5z M830.6,698.7c-16.3,7-88.3,16.4-139.2-14.6
	c-15.7-9.5-29.7-20.1-35.3-38c-4.3-9.9-5.4-11.6-0.9-12.5c10.1-1.7,14-3.7,17.2,4.7c7.8,15.6,21,24.2,37,29.4
	c57.3,18.5,112.8-13,114.5-9.5c-3.6,6.1-28.2,20-28.2,24.9C795.8,692.9,857.4,687.2,830.6,698.7z"/>
</svg>
